<svg fill="rgb(64, 111, 205)" height="512" width="512" xmlns="http://www.w3.org/2000/svg">
  <path
    d="M457 101H356.812l-9.743-29.23A44.946 44.946 0 00304.377 41h-96.754a44.943 44.943 0 00-42.691 30.77L155.188 101H131V76c0-19.299-15.701-35-35-35H76c-19.299 0-35 15.701-35 35v26.812C17.432 109.02 0 130.51 0 156v260c0 30.327 24.673 55 55 55h402c30.327 0 55-24.673 55-55V156c0-30.327-24.673-55-55-55zM71 76c0-2.757 2.243-5 5-5h20c2.757 0 5 2.243 5 5v25H71zm411 340c0 13.785-11.215 25-25 25H55c-13.785 0-25-11.215-25-25V156c0-13.785 11.215-25 25-25h111a15 15 0 0014.23-10.257l13.162-39.486A14.983 14.983 0 01207.623 71h96.754a14.98 14.98 0 0114.23 10.256l13.162 39.487A15.002 15.002 0 00346 131h111c13.785 0 25 11.215 25 25z" />
  <circle cx="436" cy="176" r="15" />
  <path
    d="M106 161H76c-8.284 0-15 6.716-15 15s6.716 15 15 15h30c8.284 0 15-6.716 15-15s-6.716-15-15-15zM256 411c-74.439 0-135-60.561-135-135s60.561-135 135-135 135 60.561 135 135-60.561 135-135 135zm0-240c-57.897 0-105 47.103-105 105s47.103 105 105 105 105-47.103 105-105-47.103-105-105-105z" />
  <path
    d="M256 351c-41.355 0-75-33.645-75-75s33.645-75 75-75 75 33.645 75 75-33.645 75-75 75zm0-120c-24.813 0-45 20.187-45 45s20.187 45 45 45 45-20.187 45-45-20.187-45-45-45z" />
</svg>